<svg width="1920" height="1080" viewBox="0 0 1920 1080" xmlns="http://www.w3.org/2000/svg">

<!-- Background -->
<rect width="1920" height="1080" fill="#7FB77E"/>

<!-- Sidebar -->
<rect x="0" y="0" width="300" height="1080" fill="#6FAF6D"/>

<!-- Main Container -->
<rect x="340" y="40" width="1540" height="1000" rx="24" fill="#F5F5F5"/>

<!-- Header -->
<text x="380" y="100" font-size="32" fill="#333">Settings</text>

<!-- PROFILE -->
<rect x="380" y="150" width="720" height="140" rx="16" fill="white"/>
<circle cx="440" cy="220" r="40" fill="#DDD"/>
<text x="500" y="210" font-size="16">Maria Salem</text>
<text x="500" y="235" font-size="13" fill="#777">maria@email.com</text>

<!-- QUICK SETTINGS (FIXED STRUCTURE) -->
<rect x="1120" y="150" width="720" height="260" rx="16" fill="white"/>

<text x="1150" y="190" font-size="18">Quick Settings</text>

<!-- Row 1 -->
<text x="1150" y="240" font-size="15">Notifications</text>
<rect x="1720" y="225" width="50" height="24" rx="12" fill="#6FAF6D"/>
<line x1="1150" y1="260" x2="1800" y2="260" stroke="#E5E5E5"/>

<!-- Row 2 -->
<text x="1150" y="300" font-size="15">Dark Mode</text>
<rect x="1720" y="285" width="50" height="24" rx="12" fill="#CCC"/>
<line x1="1150" y1="320" x2="1800" y2="320" stroke="#E5E5E5"/>

<!-- Row 3 -->
<text x="1150" y="360" font-size="15">Location Access</text>
<rect x="1720" y="345" width="50" height="24" rx="12" fill="#6FAF6D"/>

<!-- PREFERENCES -->
<rect x="380" y="320" width="720" height="260" rx="16" fill="white"/>
<text x="410" y="360" font-size="18">Preferences</text>

<text x="410" y="410">Auto-save Scans</text>
<rect x="980" y="395" width="50" height="24" rx="12" fill="#6FAF6D"/>
<line x1="410" y1="430" x2="1080" y2="430" stroke="#E5E5E5"/>

<text x="410" y="470">Show Confidence Score</text>
<rect x="980" y="455" width="50" height="24" rx="12" fill="#6FAF6D"/>
<line x1="410" y1="490" x2="1080" y2="490" stroke="#E5E5E5"/>

<text x="410" y="530">Camera Grid</text>
<rect x="980" y="515" width="50" height="24" rx="12" fill="#CCC"/>

<!-- STORAGE (FIXED) -->
<rect x="1120" y="430" width="350" height="200" rx="16" fill="white"/>
<text x="1150" y="470">Storage</text>
<text x="1150" y="510" font-size="14">120MB of 500MB used</text>

<rect x="1150" y="530" width="260" height="10" rx="5" fill="#DDD"/>
<rect x="1150" y="530" width="140" height="10" rx="5" fill="#6FAF6D"/>

<rect x="1150" y="560" width="150" height="36" rx="10" fill="#E0E0E0"/>
<text x="1175" y="583" font-size="13">Clear Cache</text>

<!-- PRIVACY (FIXED) -->
<rect x="1490" y="430" width="350" height="200" rx="16" fill="white"/>
<text x="1520" y="470">Privacy</text>

<text x="1520" y="520">Share Data for Research</text>
<rect x="1740" y="505" width="50" height="24" rx="12" fill="#CCC"/>

<!-- ACCOUNT (FILLED PROPERLY) -->
<rect x="380" y="610" width="720" height="200" rx="16" fill="white"/>
<text x="410" y="650">Account</text>

<rect x="410" y="680" width="200" height="40" rx="10" fill="#E0E0E0"/>
<text x="430" y="705" font-size="13">Change Password</text>

<rect x="630" y="680" width="200" height="40" rx="10" fill="#E0E0E0"/>
<text x="650" y="705" font-size="13">2FA</text>

<rect x="850" y="680" width="200" height="40" rx="10" fill="#E0E0E0"/>
<text x="870" y="705" font-size="13">Email Settings</text>

<!-- DANGER -->
<rect x="1120" y="650" width="720" height="160" rx="16" fill="#FFF5F5"/>
<text x="1150" y="690" fill="#D32F2F">Danger Zone</text>

<rect x="1150" y="720" width="200" height="40" rx="10" fill="#E53935"/>
<text x="1180" y="745" fill="white">Delete Account</text>

</svg>